<svg width="1280" height="400" viewBox="0 0 1280 400" fill="none" xmlns="http://www.w3.org/2000/svg">
<path fill-rule="evenodd" clip-rule="evenodd" d="M0.184813 200.194C0.152418 198.174 0.0795236 196.145 0.0795236 194.134C0.0795236 130.814 0.0957262 67.5027 0.014737 4.19165C0.00663812 0.948332 0.549263 0 3.50537 0C427.84 0.0948338 852.174 0.0948338 1276.5 0C1279.46 0 1280.01 0.948332 1280 4.19165C1279.93 69.1528 1279.98 134.123 1279.99 199.085C1279.99 199.445 1279.88 199.815 1279.83 200.194C1235.15 200.204 1190.47 200.213 1145.8 200.223C1145.7 198.724 1146.53 197.605 1147.02 196.382C1162.14 159.548 1177.26 122.696 1192.45 85.9194C1193.62 83.1123 1193.71 82.1071 1190.59 82.164C1179 82.3347 1167.42 82.2968 1155.83 82.164C1153.65 82.145 1152.6 82.9416 1151.67 85.2271C1143.5 105.484 1135.23 125.674 1126.94 145.864C1126.41 147.163 1126.17 148.756 1124.82 149.78C1124.24 148.5 1123.68 147.324 1123.18 146.11C1114.91 126.053 1106.6 106.015 1098.42 85.9099C1097.32 83.1882 1096.11 82.0217 1093.37 82.0881C1082.33 82.3062 1071.27 82.1735 1060.24 82.183C1056.29 82.183 1056.29 82.1924 1057.94 86.2134C1073.05 123.056 1088.15 159.899 1103.25 196.752C1103.71 197.852 1104.49 198.866 1104.29 200.251C1082.59 200.242 1060.88 200.232 1039.18 200.223C1039.12 194.4 1038.89 188.567 1039.07 182.745C1039.17 179.397 1038.52 178.269 1035.41 178.297C1016.56 178.487 997.728 178.325 978.874 178.477C976.152 178.487 975.229 177.918 975.27 174.418C975.464 159.33 975.44 144.233 975.286 129.145C975.245 125.825 975.909 124.972 978.809 124.981C999.826 125.152 1020.83 124.981 1041.84 125.171C1044.82 125.2 1045.37 124.175 1045.32 120.96C1045.15 109.296 1045.16 97.6314 1045.31 85.9668C1045.35 83.008 1044.71 82.1735 1042.12 82.183C1008.54 82.2873 974.97 82.2873 941.384 82.183C938.93 82.1735 938.355 82.9227 938.363 85.7487C938.476 107.304 938.444 128.87 938.428 150.425C938.412 167.04 938.347 183.646 938.306 200.251C929.576 200.298 920.861 200.365 912.131 200.412C912.082 199.397 912.001 198.392 912.001 197.378C911.993 160.222 911.969 123.066 912.058 85.9099C912.066 82.9321 911.418 82.0786 908.85 82.126C898.775 82.3062 888.7 82.3252 878.633 82.1166C875.872 82.0597 875.297 82.989 875.305 86.0996C875.402 125.911 875.37 165.731 875.37 205.552C875.37 206.88 875.37 208.189 875.37 209.507C874.357 208.397 873.815 207.212 873.321 205.998C856.799 165.883 840.253 125.759 823.82 85.597C822.775 83.0554 821.65 82.0786 819.244 82.126C810.481 82.2873 801.702 82.3252 792.931 82.1166C790.185 82.0597 789.57 83.0175 789.57 86.1375C789.683 112.776 789.651 139.406 789.634 166.035C789.626 177.443 789.553 188.852 789.505 200.26C781.997 200.27 774.49 200.27 766.982 200.27C766.787 187.079 766.318 173.916 765.5 160.762C764.69 147.599 763.507 134.522 760.3 121.795C754.558 98.978 742.207 84.184 722.154 78.8733C711.391 76.0282 700.498 75.611 689.548 77.0714C668.523 79.888 653.071 91.7801 644.518 114.929C639.027 129.808 637.318 145.589 636.071 161.53C635.067 174.409 634.848 187.335 634.273 200.251C621.315 200.279 608.348 200.308 595.39 200.336C594.54 200.336 593.649 200.403 592.92 199.72C593.373 198.43 593.795 197.14 594.289 195.879C608.567 159.273 622.854 122.667 637.132 86.0617C638.622 82.2399 638.614 82.2209 635.107 82.2209C624.06 82.2114 613.005 82.3442 601.966 82.1166C599.31 82.0692 598.217 83.2166 597.212 85.8246C587.631 110.756 577.978 135.641 568.291 160.506C567.781 161.805 567.659 163.484 566.202 164.29C565.732 163.095 565.27 161.976 564.857 160.838C555.884 136.153 546.829 111.515 538.026 86.7444C536.722 83.0839 535.134 82.0217 531.87 82.1071C521.253 82.3726 510.635 82.1924 500.025 82.2209C498.867 82.2209 497.669 81.8605 496.397 82.6761C496.794 83.8425 497.167 85.009 497.58 86.1565C505.97 108.926 514.385 131.686 522.751 154.475C528.331 169.696 533.847 184.954 539.394 200.204C538.098 200.251 536.803 200.336 535.507 200.346C488.614 200.346 441.729 200.346 394.837 200.346C393.541 200.346 392.245 200.26 390.941 200.223C391.419 199.094 391.84 197.937 392.383 196.856C410.492 160.098 428.634 123.35 446.718 86.5737C447.326 85.3314 448.427 84.2219 448.168 82.6382C391.881 82.6382 335.666 82.6382 278.901 82.6382C279.97 83.4442 280.504 83.8615 281.055 84.2503C306.818 102.724 327.162 127.343 341.902 158.221C348.252 171.507 353.492 185.381 356.658 200.223C346.34 200.308 336.014 200.403 325.688 200.469C325.154 200.071 324.587 199.71 324.06 199.284C312.025 189.383 298.735 185.097 284.027 186.576C272.616 187.723 262.582 192.797 253.341 200.431C242.253 200.374 231.174 200.308 220.087 200.251C220.524 199.246 220.921 198.203 221.399 197.235C237.248 165.077 253.09 132.947 268.939 100.808C271.903 94.8053 274.843 88.7928 277.888 82.6192C221.22 82.6192 164.933 82.6192 107.957 82.6192C122.648 92.7948 135.339 104.564 146.484 118.561C165.103 141.947 178.434 168.88 185.893 199.71C184.735 200.687 183.407 200.336 182.135 200.346C173.105 200.393 164.066 200.403 155.036 200.422L155.012 200.403C154.777 200.204 154.534 199.976 154.307 199.777C153.578 199.246 152.817 198.772 152.112 198.212C138.385 187.458 123.369 184.11 107.22 187.581C98.125 189.525 90.0746 194.314 82.5832 200.498C81.0687 200.46 79.5623 200.365 78.0478 200.365C52.0665 200.241 26.1256 200.223 0.184813 200.194Z" fill="#0B50A1"/>
<path fill-rule="evenodd" clip-rule="evenodd" d="M390.918 200.166C392.222 200.204 393.518 200.29 394.814 200.29C441.707 200.29 488.591 200.29 535.484 200.29C536.78 200.28 538.076 200.195 539.371 200.147C541.526 205.799 543.583 211.508 545.851 217.085C547.146 220.271 547.632 223.467 547.632 226.976C547.56 256.412 547.632 285.849 547.527 315.285C547.519 318.263 548.159 319.116 550.742 319.078C560.704 318.889 570.682 318.822 580.644 319.097C583.81 319.183 584.288 317.902 584.28 314.602C584.183 284.786 584.231 254.971 584.239 225.145C584.239 223.505 584.069 221.864 584.701 220.28C587.463 213.415 590.176 206.53 592.913 199.645C593.642 200.327 594.533 200.261 595.384 200.261C608.342 200.233 621.308 200.204 634.266 200.176C634.663 210.304 634.922 220.442 635.506 230.56C636.437 246.625 637.579 262.671 641.952 278.11C648.237 300.292 660.021 315.996 679.928 321.819C693.259 325.717 706.703 325.631 720.18 322.397C738.402 317.997 750.745 305.546 757.572 285.403C761.841 272.799 763.639 259.542 764.829 246.151C766.198 230.892 766.7 215.548 766.967 200.204C774.483 200.204 781.983 200.204 789.49 200.195C789.539 201.712 789.62 203.229 789.62 204.747C789.628 241.656 789.644 278.556 789.563 315.475C789.555 318.253 790.09 319.154 792.592 319.097C802.651 318.917 812.734 318.889 822.801 319.116C825.781 319.183 826.543 318.244 826.543 314.744C826.429 275.17 826.47 235.596 826.478 196.031C826.478 194.799 826.162 193.433 827.004 192.02C827.62 193.48 828.114 194.599 828.584 195.737C845.025 235.767 861.49 275.768 877.866 315.835C878.862 318.263 879.939 319.145 882.231 319.088C891.115 318.927 899.984 318.889 908.868 319.107C911.541 319.173 912.059 318.12 912.051 315.247C911.962 289.12 911.986 262.994 912.003 236.867C912.011 224.69 912.075 212.523 912.124 200.346C920.855 200.299 929.569 200.233 938.3 200.195C938.34 201.712 938.421 203.229 938.421 204.747C938.429 241.647 938.437 278.556 938.381 315.465C938.381 317.826 938.551 319.05 941.086 319.05C974.874 318.936 1008.67 318.946 1042.46 319.031C1044.78 319.04 1045.35 318.196 1045.34 315.588C1045.21 303.801 1045.17 292.003 1045.35 280.215C1045.41 276.887 1044.7 275.976 1041.8 276.005C1020.79 276.166 999.779 276.024 978.77 276.166C976.024 276.175 975.069 275.559 975.109 272.05C975.279 256.441 975.279 240.84 975.109 225.25C975.069 221.731 976.049 221.115 978.794 221.134C997.859 221.267 1016.92 221.143 1035.99 221.267C1038.43 221.286 1039.14 220.518 1039.07 217.654C1038.93 211.84 1039.12 205.998 1039.19 200.166C1060.89 200.176 1082.6 200.185 1104.3 200.204C1103.92 201.371 1103.61 202.575 1103.15 203.694C1087.86 240.888 1072.6 278.091 1057.23 315.238C1056.05 318.092 1056.05 318.964 1059.1 318.917C1070.36 318.737 1081.63 318.718 1092.91 318.936C1095.54 318.993 1096.67 317.836 1097.73 315.256C1106.13 294.706 1114.67 274.222 1123.17 253.719C1123.67 252.505 1124.23 251.339 1124.79 250.087C1126.11 250.969 1126.31 252.458 1126.79 253.652C1135.34 274.402 1143.87 295.171 1152.31 315.987C1153.18 318.13 1154.17 318.917 1156.2 318.898C1167.69 318.784 1179.19 318.851 1190.66 318.841C1194.25 318.841 1194.26 318.832 1192.65 314.915C1177.45 277.958 1162.25 240.992 1147.07 204.035C1146.56 202.803 1145.79 201.665 1145.79 200.195C1190.47 200.185 1235.14 200.176 1279.82 200.166C1279.86 201.437 1279.93 202.708 1279.93 203.969C1279.93 267.906 1279.91 331.852 1279.99 395.808C1280 399.023 1279.49 400 1276.52 400C852.176 399.905 427.825 399.915 3.49068 399.943C1.39306 399.943 -0.00806399 400.142 3.49257e-05 396.567C0.105321 331.862 0.0810259 267.147 0.0810259 202.433C0.0810259 201.674 0.15392 200.915 0.186316 200.157C26.1271 200.195 52.068 200.214 77.9926 200.261C79.5152 200.261 81.0216 200.356 82.528 200.394C81.6533 201.342 80.7786 202.281 79.9039 203.229C64.0301 220.271 57.4456 241.362 60.5799 266.256C65.4555 304.834 97.5515 331.16 129.996 323.479C163.55 315.55 184.461 276.716 176.022 238.223C172.636 222.784 165.299 210.437 154.989 200.318C164.019 200.299 173.058 200.289 182.088 200.242C183.359 200.233 184.688 200.574 185.846 199.597C190.486 217.322 192.382 235.558 192.746 254.942C193.767 252.989 194.398 251.86 194.965 250.713C203.323 233.87 211.681 217.018 220.039 200.166C231.127 200.223 242.206 200.29 253.294 200.346C252.67 201.039 252.063 201.74 251.415 202.423C234.577 220.024 227.62 241.922 231.58 267.963C237.59 307.395 270.99 332.545 303.628 322.682C337.417 312.478 356.514 271.538 345.427 233.121C341.612 219.901 334.688 209.261 325.633 200.394C335.959 200.318 346.285 200.223 356.603 200.157C360.442 213.955 362.232 228.18 363.042 242.623C363.261 246.388 363.439 250.163 363.682 254.838C365.237 251.718 366.322 249.537 367.407 247.356C375.263 231.623 383.087 215.899 390.918 200.166ZM1201.78 295.863C1201.81 309.329 1211.28 320.378 1222.69 320.264C1234.12 320.15 1243.46 308.997 1243.39 295.56C1243.3 282.368 1233.85 271.348 1222.6 271.32C1211.18 271.301 1201.75 282.416 1201.78 295.863Z" fill="#1D9533"/>
<path fill-rule="evenodd" clip-rule="evenodd" d="M912.143 200.376C912.094 212.543 912.029 224.71 912.021 236.896C912.005 263.023 911.981 289.149 912.07 315.276C912.078 318.15 911.567 319.202 908.887 319.136C900.002 318.927 891.134 318.956 882.249 319.117C879.957 319.174 878.88 318.292 877.884 315.864C861.516 275.797 845.043 235.796 828.602 195.767C828.124 194.638 827.639 193.519 827.023 192.049C826.181 193.453 826.497 194.828 826.497 196.061C826.488 235.625 826.448 275.199 826.561 314.774C826.561 318.273 825.8 319.212 822.82 319.145C812.753 318.918 802.67 318.946 792.611 319.126C790.108 319.183 789.574 318.282 789.582 315.504C789.663 278.585 789.646 241.685 789.638 204.776C789.638 203.259 789.557 201.741 789.509 200.224C789.557 188.815 789.63 177.397 789.638 165.998C789.655 139.369 789.687 112.74 789.574 86.1009C789.574 82.9809 790.189 82.023 792.935 82.0799C801.706 82.2886 810.485 82.2601 819.248 82.0894C821.662 82.042 822.787 83.0188 823.824 85.5603C840.257 125.722 856.803 165.847 873.324 205.961C873.818 207.175 874.361 208.361 875.373 209.47C875.373 208.152 875.373 206.843 875.373 205.516C875.373 165.695 875.406 125.874 875.309 86.063C875.301 82.9429 875.876 82.0136 878.637 82.0799C888.704 82.2886 898.779 82.2696 908.854 82.0894C911.422 82.042 912.07 82.8955 912.062 85.8733C911.972 123.029 911.997 160.185 912.005 197.341C912.013 198.356 912.094 199.361 912.143 200.376Z" fill="#FCFEFD"/>
<path fill-rule="evenodd" clip-rule="evenodd" d="M766.979 200.223C766.72 215.568 766.21 230.902 764.841 246.17C763.65 259.561 761.852 272.819 757.584 285.422C750.757 305.565 738.414 318.026 720.192 322.417C706.715 325.66 693.271 325.745 679.94 321.838C660.033 316.016 648.249 300.302 641.964 278.129C637.591 262.69 636.449 246.654 635.517 230.58C634.934 220.461 634.675 210.323 634.278 200.195C634.853 187.288 635.072 174.362 636.076 161.474C637.324 145.533 639.032 129.762 644.523 114.873C653.076 91.7241 668.529 79.832 689.553 77.0154C700.511 75.555 711.396 75.9817 722.16 78.8173C742.213 84.128 754.563 98.922 760.305 121.739C763.513 134.466 764.695 147.543 765.505 160.706C766.315 173.869 766.777 187.042 766.979 200.223ZM728.533 200.214C728.987 187.392 727.894 174.647 727.481 161.873C727.205 153.243 726.922 144.651 724.29 136.438C720.127 123.351 711.412 116.903 698.948 117.633C686.775 118.344 679.592 125.163 676.304 138.894C674.311 147.192 674.506 155.69 674.165 164.149C673.671 176.174 672.772 188.18 673.21 200.233C672.805 216.876 673.931 233.444 674.765 250.03C674.983 254.573 675.842 259.049 677.016 263.43C680.588 276.716 688.015 283.279 699.79 283.412C712.781 283.573 720.726 277.247 724.533 263.753C726.776 255.825 727.149 247.612 727.448 239.361C727.95 226.303 728.995 213.282 728.533 200.214Z" fill="#FCFDFD"/>
<path fill-rule="evenodd" clip-rule="evenodd" d="M1039.19 200.204C1039.13 206.027 1038.94 211.869 1039.08 217.692C1039.14 220.556 1038.43 221.324 1035.99 221.305C1016.93 221.182 997.863 221.305 978.798 221.172C976.053 221.153 975.073 221.76 975.113 225.288C975.283 240.879 975.283 256.479 975.113 272.088C975.073 275.588 976.028 276.214 978.774 276.204C999.783 276.062 1020.79 276.204 1041.8 276.043C1044.71 276.015 1045.41 276.934 1045.36 280.254C1045.19 292.041 1045.22 303.839 1045.34 315.627C1045.36 318.235 1044.78 319.079 1042.46 319.069C1008.68 318.984 974.878 318.974 941.09 319.088C938.563 319.088 938.385 317.865 938.385 315.503C938.441 278.594 938.433 241.685 938.425 204.785C938.425 203.268 938.344 201.75 938.304 200.233C938.344 183.618 938.409 167.013 938.425 150.398C938.441 128.852 938.474 107.286 938.36 85.7211C938.352 82.8951 938.927 82.1459 941.381 82.1554C974.959 82.2597 1008.53 82.2597 1042.12 82.1554C1044.7 82.1459 1045.34 82.9804 1045.31 85.9392C1045.15 97.6038 1045.14 109.268 1045.31 120.933C1045.36 124.148 1044.82 125.172 1041.84 125.144C1020.83 124.954 999.823 125.134 978.806 124.954C975.915 124.944 975.251 125.798 975.283 129.117C975.445 144.205 975.461 159.303 975.267 174.391C975.227 177.9 976.15 178.469 978.871 178.45C997.725 178.307 1016.56 178.459 1035.41 178.269C1038.52 178.241 1039.17 179.369 1039.07 182.717C1038.91 188.54 1039.14 194.372 1039.19 200.204Z" fill="#FCFDFD"/>
<path fill-rule="evenodd" clip-rule="evenodd" d="M1145.8 200.214C1145.79 201.684 1146.57 202.822 1147.07 204.054C1162.26 241.011 1177.46 277.977 1192.65 314.934C1194.27 318.851 1194.26 318.86 1190.67 318.86C1179.19 318.87 1167.7 318.803 1156.21 318.917C1154.18 318.936 1153.19 318.149 1152.31 316.006C1143.87 295.19 1135.34 274.421 1126.8 253.672C1126.31 252.477 1126.12 250.988 1124.79 250.106C1124.24 251.358 1123.67 252.524 1123.17 253.738C1114.68 274.241 1106.14 294.725 1097.74 315.276C1096.68 317.846 1095.55 319.012 1092.92 318.955C1081.64 318.746 1070.37 318.756 1059.1 318.936C1056.05 318.984 1056.06 318.111 1057.24 315.257C1072.6 278.11 1087.87 240.907 1103.16 203.713C1103.62 202.594 1103.93 201.39 1104.31 200.223C1104.51 198.829 1103.73 197.814 1103.27 196.714C1088.18 159.862 1073.07 123.019 1057.96 86.1761C1056.31 82.1551 1056.31 82.1456 1060.25 82.1456C1071.29 82.1361 1082.35 82.2689 1093.39 82.0508C1096.12 81.9939 1097.34 83.1604 1098.44 85.8726C1106.62 105.987 1114.93 126.016 1123.2 146.073C1123.7 147.277 1124.26 148.453 1124.83 149.743C1126.19 148.719 1126.42 147.135 1126.96 145.827C1135.24 125.636 1143.52 105.456 1151.69 85.1898C1152.61 82.8948 1153.67 82.0982 1155.84 82.1267C1167.43 82.2594 1179.02 82.2974 1190.61 82.1267C1193.74 82.0793 1193.63 83.075 1192.47 85.8821C1177.27 122.668 1162.16 159.511 1147.04 196.344C1146.53 197.596 1145.71 198.715 1145.8 200.214Z" fill="#FCFDFD"/>
<path fill-rule="evenodd" clip-rule="evenodd" d="M592.913 199.662C590.176 206.546 587.462 213.431 584.701 220.297C584.069 221.881 584.239 223.522 584.239 225.162C584.231 254.988 584.191 284.803 584.28 314.619C584.288 317.919 583.81 319.19 580.643 319.114C570.682 318.839 560.704 318.915 550.742 319.095C548.158 319.133 547.511 318.28 547.527 315.302C547.632 285.865 547.559 256.429 547.632 226.993C547.632 223.484 547.146 220.288 545.85 217.101C543.583 211.525 541.525 205.816 539.371 200.164C533.823 184.924 528.308 169.666 522.728 154.435C514.362 131.647 505.947 108.887 497.556 86.1171C497.143 84.9696 496.771 83.8031 496.374 82.6367C497.646 81.8306 498.844 82.1815 500.002 82.1815C510.612 82.153 521.238 82.3332 531.847 82.0676C535.111 81.9823 536.699 83.0539 538.002 86.705C546.806 111.476 555.861 136.113 564.834 160.799C565.247 161.937 565.709 163.056 566.179 164.251C567.636 163.445 567.758 161.766 568.268 160.467C577.946 135.601 587.608 110.717 597.189 85.7851C598.194 83.1772 599.287 82.0297 601.943 82.0771C612.99 82.3047 624.045 82.172 635.084 82.1815C638.599 82.1815 638.607 82.2004 637.109 86.0222C622.83 122.628 608.544 159.234 594.266 195.84C593.788 197.073 593.367 198.372 592.913 199.662Z" fill="#FCFDFE"/>
<path fill-rule="evenodd" clip-rule="evenodd" d="M154.996 200.347C165.298 210.465 172.636 222.813 176.029 238.252C184.468 276.754 163.557 315.579 130.003 323.507C97.5671 331.189 65.463 304.863 60.5874 266.284C57.4451 241.381 64.0295 220.29 79.9114 203.258C80.7861 202.31 81.6608 201.371 82.5355 200.422C90.027 194.239 98.0773 189.45 107.172 187.506C123.33 184.035 138.345 187.383 152.065 198.137C152.769 198.696 153.531 199.171 154.259 199.702C154.486 199.901 154.729 200.119 154.964 200.328L154.996 200.347Z" fill="#FCFEFE"/>
<path fill-rule="evenodd" clip-rule="evenodd" d="M325.659 200.401C334.714 209.278 341.646 219.918 345.453 233.129C356.54 271.555 337.443 312.485 303.654 322.69C271.007 332.552 237.608 307.412 231.606 267.97C227.638 241.929 234.603 220.032 251.44 202.431C252.088 201.758 252.696 201.046 253.319 200.354C262.56 192.72 272.595 187.646 284.006 186.499C298.706 185.019 312.004 189.296 324.039 199.207C324.549 199.643 325.116 200.003 325.659 200.401Z" fill="#FCFEFE"/>
<path fill-rule="evenodd" clip-rule="evenodd" d="M390.914 200.166C383.091 215.899 375.259 231.622 367.436 247.365C366.35 249.546 365.265 251.727 363.71 254.847C363.467 250.172 363.289 246.398 363.07 242.633C362.252 228.199 360.471 213.974 356.632 200.166C353.465 185.315 348.225 171.45 341.875 158.155C327.135 127.277 306.791 102.658 281.028 84.1844C280.486 83.7861 279.943 83.3784 278.874 82.5723C335.647 82.5723 391.862 82.5723 448.141 82.5723C448.4 84.156 447.299 85.2655 446.692 86.5078C428.607 123.284 410.465 160.032 392.356 196.79C391.813 197.871 391.392 199.028 390.914 200.166Z" fill="#FCFEFE"/>
<path fill-rule="evenodd" clip-rule="evenodd" d="M220.049 200.195C211.691 217.047 203.333 233.899 194.975 250.741C194.4 251.889 193.777 253.017 192.756 254.971C192.392 235.587 190.496 217.35 185.856 199.626C178.405 168.805 165.074 141.881 146.446 118.486C135.302 104.498 122.611 92.7196 107.92 82.5439C164.896 82.5439 221.183 82.5439 277.851 82.5439C274.806 88.7176 271.858 94.7301 268.902 100.733C253.052 132.872 237.211 165.011 221.361 197.16C220.884 198.146 220.487 199.18 220.049 200.195Z" fill="#FCFEFE"/>
<path fill-rule="evenodd" clip-rule="evenodd" d="M154.971 200.328C154.736 200.119 154.493 199.901 154.267 199.702C154.493 199.901 154.736 200.129 154.971 200.328Z" fill="#14716E"/>
<path fill-rule="evenodd" clip-rule="evenodd" d="M1201.78 295.861C1201.75 282.414 1211.18 271.29 1222.59 271.318C1233.84 271.347 1243.3 282.367 1243.38 295.558C1243.46 309.005 1234.11 320.158 1222.67 320.262C1211.28 320.376 1201.81 309.328 1201.78 295.861ZM1222.46 317.768C1232.77 317.796 1241.29 307.877 1241.31 295.823C1241.33 283.855 1232.61 273.632 1222.46 273.746C1212.31 273.86 1203.86 283.761 1203.81 295.624C1203.74 307.716 1212.17 317.73 1222.46 317.768Z" fill="#ECF6EE"/>
<path fill-rule="evenodd" clip-rule="evenodd" d="M728.529 200.211C728.999 213.289 727.954 226.31 727.46 239.349C727.16 247.6 726.788 255.812 724.544 263.741C720.738 277.235 712.793 283.561 699.802 283.4C688.026 283.257 680.599 276.704 677.028 263.418C675.845 259.037 674.995 254.561 674.776 250.018C673.934 233.432 672.816 216.864 673.221 200.221C691.646 200.211 710.088 200.211 728.529 200.211Z" fill="#1E9534"/>
<path fill-rule="evenodd" clip-rule="evenodd" d="M728.526 200.212C710.093 200.221 691.644 200.221 673.211 200.221C672.773 188.168 673.68 176.162 674.166 164.137C674.506 155.678 674.312 147.171 676.304 138.883C679.593 125.151 686.776 118.332 698.949 117.621C711.413 116.891 720.128 123.349 724.29 136.427C726.914 144.63 727.198 153.222 727.481 161.861C727.886 174.645 728.972 187.39 728.526 200.212Z" fill="#0C51A0"/>
<path fill-rule="evenodd" clip-rule="evenodd" d="M1222.46 317.768C1212.17 317.73 1203.74 307.715 1203.81 295.614C1203.86 283.751 1212.31 273.85 1222.46 273.736C1232.61 273.622 1241.34 283.846 1241.31 295.814C1241.29 307.876 1232.77 317.796 1222.46 317.768ZM1231.92 308.303C1231.73 307.715 1231.55 307.146 1231.39 306.577C1230.37 303.135 1232.12 298.791 1228.86 296.013C1228.51 295.728 1229.27 295.055 1229.65 294.647C1231.84 292.305 1231.52 289.365 1230.74 286.558C1229.93 283.599 1227.71 282.764 1225.32 282.67C1222.29 282.565 1219.27 282.67 1216.24 282.584C1214.89 282.556 1214.3 283.03 1214.32 284.728C1214.37 292.068 1214.37 299.417 1214.33 306.757C1214.33 308.227 1214.84 308.768 1216.08 308.73C1217.36 308.702 1217.39 307.772 1217.39 306.691C1217.38 304.415 1217.47 302.13 1217.35 299.854C1217.27 298.014 1217.89 297.549 1219.41 297.464C1226.97 296.999 1227.19 297.103 1227.99 305.468C1228.26 308.445 1229.34 309.517 1231.92 308.303Z" fill="#219637"/>
<path fill-rule="evenodd" clip-rule="evenodd" d="M1231.92 308.304C1229.34 309.518 1228.25 308.447 1227.97 305.478C1227.17 297.114 1226.95 297.01 1219.39 297.474C1217.87 297.56 1217.26 298.024 1217.34 299.864C1217.45 302.131 1217.36 304.416 1217.37 306.702C1217.38 307.783 1217.35 308.712 1216.07 308.741C1214.83 308.779 1214.31 308.238 1214.32 306.768C1214.35 299.428 1214.36 292.078 1214.3 284.738C1214.28 283.041 1214.88 282.566 1216.23 282.595C1219.25 282.68 1222.28 282.576 1225.31 282.68C1227.7 282.775 1229.91 283.619 1230.72 286.568C1231.51 289.376 1231.82 292.306 1229.63 294.658C1229.25 295.066 1228.49 295.729 1228.85 296.023C1232.1 298.802 1230.36 303.145 1231.37 306.588C1231.55 307.147 1231.72 307.707 1231.92 308.304ZM1221.55 285.687C1220.53 286.55 1218.28 284.264 1217.44 286.815C1215.81 291.841 1217.6 294.62 1222.12 294.601C1226.81 294.591 1228.25 293.577 1228.35 290.21C1228.43 286.806 1226.88 285.696 1221.55 285.687Z" fill="#ECF6EE"/>
<path fill-rule="evenodd" clip-rule="evenodd" d="M1221.55 285.687C1226.88 285.697 1228.45 286.806 1228.36 290.22C1228.25 293.577 1226.83 294.602 1222.12 294.611C1217.59 294.63 1215.82 291.851 1217.45 286.825C1218.27 284.265 1220.53 286.55 1221.55 285.687Z" fill="#219637"/>
</svg>
