<svg width="1280" height="400" viewBox="0 0 1280 400" fill="none" xmlns="http://www.w3.org/2000/svg">
<path fill-rule="evenodd" clip-rule="evenodd" d="M0 400H1280V320.007H0V400Z" fill="#ED6D00"/>
<path fill-rule="evenodd" clip-rule="evenodd" d="M0 300.001H1280V5.88859e-05H0V300.001Z" fill="#0C3488"/>
<path fill-rule="evenodd" clip-rule="evenodd" d="M0 320.009H1280V299.999H0V320.009Z" fill="white"/>
<path fill-rule="evenodd" clip-rule="evenodd" d="M183.135 232.798C200.491 232.798 214.764 217.361 214.764 198.579C214.764 179.372 200.491 163.948 183.135 163.948C165.757 163.948 151.479 179.372 151.479 198.579C151.479 217.361 165.757 232.798 183.135 232.798Z" fill="white"/>
<path d="M276.849 67.2384C261.896 67.2384 246.929 72.0011 238.88 81.6006C231.192 90.749 205.748 124.756 205.748 124.756C205.748 124.756 196.847 137.811 183.521 138.679H183.315H183.133C169.815 137.811 160.905 124.756 160.905 124.756C160.905 124.756 135.455 90.749 127.772 81.6006C119.692 72.0011 104.764 67.2384 89.798 67.2384C74.876 66.7816 63.1387 74.6379 63.1387 74.6379L145.582 182.597C146.049 181.218 155.57 153.935 183.133 153.935H183.315H183.521C211.097 153.935 220.61 181.218 221.068 182.597L303.483 74.6379C303.483 74.6379 291.778 66.7816 276.849 67.2384Z" fill="white"/>
<path fill-rule="evenodd" clip-rule="evenodd" d="M488.239 67.203V150.441L417.943 67.203H350.091L487.431 232.786H535.502V153.5V67.203H488.239Z" fill="white"/>
<path fill-rule="evenodd" clip-rule="evenodd" d="M556.694 67.203V142.577V232.786H606.65V143.001V67.203H556.694Z" fill="white"/>
<path fill-rule="evenodd" clip-rule="evenodd" d="M1154.65 131.21H1146.12H1131.07V108.424H1146.12H1153.83C1154.65 108.855 1161.55 111.502 1161.55 119.855C1161.55 128.148 1154.65 131.21 1154.65 131.21ZM1186.76 164.118C1209.53 153.158 1219.71 134.748 1214.4 104.488C1210.75 79.9256 1188.82 67.648 1165.21 67.2055H1146.12H1081.47V232.79H1131.88V178.127C1131.88 176.391 1133.1 176.838 1133.91 176.838L1146.12 200.958L1162.38 232.79H1216.86L1186.76 164.118Z" fill="white"/>
<path fill-rule="evenodd" clip-rule="evenodd" d="M982.206 181.658C965.941 181.658 952.924 167.48 952.924 149.799C952.924 132.5 965.941 117.904 982.206 117.904C998.092 117.904 1011.51 132.5 1011.51 149.799C1011.51 167.48 998.092 181.658 982.206 181.658ZM982.206 61.6664C937.437 61.6664 901.216 101.52 901.216 149.799C901.216 198.485 937.437 238.339 982.206 238.339C1026.98 238.339 1063.62 198.485 1063.62 149.799C1063.62 101.066 1026.98 61.6664 982.206 61.6664Z" fill="white"/>
<path fill-rule="evenodd" clip-rule="evenodd" d="M797.847 67.203V115.206H818.183V201.984V232.786H870.685V152.646V115.206H890.239V67.203H797.847Z" fill="white"/>
<path fill-rule="evenodd" clip-rule="evenodd" d="M703.724 61.6664C744.13 61.6664 778.006 93.7747 784.525 135.259H733.109C727.812 125.019 717.594 118.32 706.181 118.32C689.042 118.32 675.153 133.042 675.153 151.345C675.153 169.641 689.042 184.796 706.181 184.796C717.594 184.796 727.812 178.118 733.109 167.837H784.112C776.376 207.995 743.313 238.339 703.724 238.339C658.806 238.339 622.097 198.635 622.097 150.02C622.097 101.344 658.806 61.6664 703.724 61.6664Z" fill="white"/>
</svg>
