<?xml version="1.0" encoding="UTF-8" standalone="no"?>
<svg
   version="1.1"
   id="svg2"
   xml:space="preserve"
   width="196"
   height="100"
   viewBox="0 0 196 100"
   sodipodi:docname="VICTOR LOGO.svg"
   inkscape:version="1.1.1 (3bf5ae0, 2021-09-20)"
   xmlns:inkscape="http://www.inkscape.org/namespaces/inkscape"
   xmlns:sodipodi="http://sodipodi.sourceforge.net/DTD/sodipodi-0.dtd"
   xmlns="http://www.w3.org/2000/svg"
   xmlns:svg="http://www.w3.org/2000/svg"
   xmlns:rdf="http://www.w3.org/1999/02/22-rdf-syntax-ns#"
   xmlns:cc="http://creativecommons.org/ns#"
   xmlns:dc="http://purl.org/dc/elements/1.1/"><metadata
     id="metadata8"><rdf:RDF><cc:Work
         rdf:about=""><dc:format>image/svg+xml</dc:format><dc:type
           rdf:resource="http://purl.org/dc/dcmitype/StillImage" /></cc:Work></rdf:RDF></metadata><defs
     id="defs6"><clipPath
       clipPathUnits="userSpaceOnUse"
       id="clipPath24"><path
         d="M 0,1000 H 1600 V 0 H 0 Z"
         id="path22" /></clipPath></defs><sodipodi:namedview
     pagecolor="#ffffff"
     bordercolor="#666666"
     borderopacity="1"
     objecttolerance="10"
     gridtolerance="10"
     guidetolerance="10"
     inkscape:pageopacity="0"
     inkscape:pageshadow="2"
     inkscape:window-width="1920"
     inkscape:window-height="1051"
     id="namedview4"
     inkscape:pagecheckerboard="1"
     showgrid="false"
     width="196px"
     inkscape:zoom="1.2840001"
     inkscape:cx="80.607472"
     inkscape:cy="209.50154"
     inkscape:window-x="0"
     inkscape:window-y="0"
     inkscape:window-maximized="1"
     inkscape:current-layer="g10" /><g
     id="g10"
     inkscape:groupmode="layer"
     inkscape:label="VICTOR LOGO"
     transform="matrix(1.3333333,0,0,-1.3333333,0,1333.3333)"><g
       id="g198"
       transform="matrix(0.13721116,0,0,0.13721116,-36.441058,893.9515)"><path
         d="m 309.312,359.034 h 983.885 v 56.215 H 309.312 Z"
         style="fill:#ed6d00;fill-opacity:1;fill-rule:evenodd;stroke:none"
         id="path12" /><path
         d="m 309.312,429.309 h 983.885 V 640.134 H 309.312 Z"
         style="fill:#0c3488;fill-opacity:1;fill-rule:evenodd;stroke:none"
         id="path14" /><path
         d="m 309.312,415.249 h 983.885 v 14.062 H 309.312 Z"
         style="fill:#ffffff;fill-opacity:1;fill-rule:evenodd;stroke:none"
         id="path16" /><g
         id="g18"><g
           id="g20"
           clip-path="url(#clipPath24)"><g
             id="g26"
             transform="translate(450.0791,476.5352)"><path
               d="M 0,0 C 13.341,0 24.312,10.848 24.312,24.047 24.312,37.545 13.341,48.384 0,48.384 -13.358,48.384 -24.333,37.545 -24.333,24.047 -24.333,10.848 -13.358,0 0,0"
               style="fill:#ffffff;fill-opacity:1;fill-rule:evenodd;stroke:none"
               id="path28" /></g><g
             id="g30"
             transform="translate(522.1147,592.8833)"><path
               d="m 0,0 c -11.494,0 -22.999,-3.347 -29.186,-10.093 -5.909,-6.429 -25.467,-30.327 -25.467,-30.327 0,0 -6.842,-9.175 -17.085,-9.785 h -0.158 -0.14 c -10.237,0.61 -17.086,9.785 -17.086,9.785 0,0 -19.562,23.898 -25.468,30.327 C -120.801,-3.347 -132.275,0 -143.779,0 c -11.47,0.321 -20.492,-5.2 -20.492,-5.2 l 63.371,-75.868 c 0.359,0.969 7.677,20.142 28.864,20.142 h 0.14 0.158 c 21.197,0 28.509,-19.173 28.861,-20.142 L 20.472,-5.2 c 0,0 -8.997,5.521 -20.472,5.2"
               style="fill:#ffffff;fill-opacity:1;fill-rule:nonzero;stroke:none"
               id="path32" /></g><g
             id="g34"
             transform="translate(684.5991,592.9058)"><path
               d="M 0,0 V -58.495 L -54.034,0 h -52.155 L -0.621,-116.363 h 36.95 V -60.645 0 Z"
               style="fill:#ffffff;fill-opacity:1;fill-rule:evenodd;stroke:none"
               id="path36" /></g><g
             id="g38"
             transform="translate(737.2183,592.9058)"><path
               d="m 0,0 v -52.969 -63.394 H 38.399 V -53.267 0 Z"
               style="fill:#ffffff;fill-opacity:1;fill-rule:evenodd;stroke:none"
               id="path40" /></g><g
             id="g42"
             transform="translate(1196.8438,547.9272)"><path
               d="m 0,0 h -6.556 -11.566 v 16.013 h 11.566 5.927 C 0,15.71 5.309,13.85 5.309,7.98 5.309,2.152 0,0 0,0 m 24.684,-23.126 c 17.5,7.702 25.326,20.64 21.249,41.905 C 43.122,36.04 26.267,44.668 8.122,44.979 H -6.556 -56.247 V -71.385 h 38.748 v 38.414 c 0,1.22 0.938,0.906 1.563,0.906 l 9.38,-16.95 12.5,-22.37 h 41.879 z"
               style="fill:#ffffff;fill-opacity:1;fill-rule:evenodd;stroke:none"
               id="path44" /></g><g
             id="g46"
             transform="translate(1064.2939,512.4741)"><path
               d="m 0,0 c -12.502,0 -22.508,9.964 -22.508,22.389 0,12.157 10.006,22.414 22.508,22.414 12.211,0 22.522,-10.257 22.522,-22.414 C 22.522,9.964 12.211,0 0,0 m 0,84.324 c -34.412,0 -62.254,-28.007 -62.254,-61.935 0,-34.214 27.842,-62.221 62.254,-62.221 34.415,0 62.58,28.007 62.58,62.221 0,34.247 -28.165,61.935 -62.58,61.935"
               style="fill:#ffffff;fill-opacity:1;fill-rule:evenodd;stroke:none"
               id="path48" /></g><g
             id="g50"
             transform="translate(922.585,592.9058)"><path
               d="m 0,0 v -33.734 h 15.632 v -60.983 -21.646 h 40.356 v 56.318 26.311 h 15.03 V 0 Z"
               style="fill:#ffffff;fill-opacity:1;fill-rule:evenodd;stroke:none"
               id="path52" /></g><g
             id="g54"
             transform="translate(850.2344,596.7983)"><path
               d="M 0,0 C 31.058,0 57.097,-22.564 62.108,-51.717 H 22.587 c -4.072,7.196 -11.926,11.904 -20.699,11.904 -13.174,0 -23.85,-10.346 -23.85,-23.208 0,-12.858 10.676,-23.508 23.85,-23.508 8.773,0 16.627,4.693 20.699,11.918 H 61.791 C 55.844,-102.832 30.43,-124.156 0,-124.156 c -34.527,0 -62.744,27.902 -62.744,62.066 C -62.744,-27.883 -34.527,0 0,0"
               style="fill:#ffffff;fill-opacity:1;fill-rule:evenodd;stroke:none"
               id="path56" /></g></g></g></g></g></svg>
