<?xml version="1.0" encoding="utf-8"?>
<!-- Generator: Adobe Illustrator 16.0.0, SVG Export Plug-In . SVG Version: 6.00 Build 0)  -->
<!DOCTYPE svg PUBLIC "-//W3C//DTD SVG 1.1//EN" "http://www.w3.org/Graphics/SVG/1.1/DTD/svg11.dtd">
<svg version="1.1" id="Layer_1" xmlns="http://www.w3.org/2000/svg" xmlns:xlink="http://www.w3.org/1999/xlink" x="0px" y="0px"
	 width="196px" height="100px" viewBox="0 0 196 100" enable-background="new 0 0 196 100" xml:space="preserve">
<g>
	<path fill-rule="evenodd" clip-rule="evenodd" fill="#0B50A1" d="M19,50.019c-0.004-0.213-0.013-0.427-0.013-0.639
		c0-6.677,0.002-13.353-0.008-20.029c-0.001-0.342,0.066-0.442,0.431-0.442c52.394,0.01,104.788,0.01,157.181,0
		c0.365,0,0.433,0.1,0.432,0.442c-0.008,6.85-0.003,13.701-0.001,20.551c0,0.038-0.014,0.077-0.02,0.117
		c-5.517,0.001-11.033,0.002-16.549,0.003c-0.012-0.158,0.09-0.276,0.151-0.405c1.867-3.884,3.733-7.77,5.609-11.648
		c0.144-0.296,0.156-0.402-0.23-0.396c-1.431,0.018-2.861,0.014-4.292,0c-0.269-0.002-0.398,0.082-0.513,0.323
		c-1.009,2.136-2.03,4.265-3.054,6.394c-0.065,0.137-0.095,0.305-0.262,0.413c-0.071-0.135-0.14-0.259-0.202-0.387
		c-1.021-2.115-2.047-4.228-3.057-6.348c-0.136-0.287-0.286-0.41-0.624-0.403c-1.363,0.023-2.728,0.009-4.091,0.01
		c-0.487,0-0.487,0.001-0.283,0.425c1.865,3.885,3.73,7.77,5.594,11.656c0.057,0.116,0.153,0.223,0.129,0.369
		c-2.68-0.001-5.36-0.002-8.04-0.003c-0.007-0.614-0.035-1.229-0.013-1.843c0.012-0.353-0.068-0.472-0.452-0.469
		c-2.328,0.02-4.653,0.003-6.981,0.019c-0.336,0.001-0.45-0.059-0.445-0.428c0.024-1.591,0.021-3.183,0.002-4.774
		c-0.005-0.35,0.077-0.44,0.435-0.439c2.595,0.018,5.189,0,7.783,0.02c0.368,0.003,0.435-0.105,0.429-0.444
		c-0.021-1.23-0.02-2.46-0.001-3.69c0.005-0.312-0.074-0.4-0.394-0.399c-4.146,0.011-8.291,0.011-12.438,0
		c-0.303-0.001-0.374,0.078-0.373,0.376c0.014,2.273,0.01,4.547,0.008,6.82c-0.002,1.752-0.01,3.503-0.015,5.254
		c-1.078,0.005-2.154,0.012-3.232,0.017c-0.006-0.107-0.016-0.213-0.016-0.32c-0.001-3.918-0.004-7.836,0.007-11.754
		c0.001-0.314-0.079-0.404-0.396-0.399c-1.244,0.019-2.488,0.021-3.731-0.001c-0.341-0.006-0.412,0.092-0.411,0.42
		c0.012,4.198,0.008,8.397,0.008,12.596c0,0.14,0,0.278,0,0.417c-0.125-0.117-0.192-0.242-0.253-0.37
		c-2.04-4.23-4.083-8.461-6.112-12.696c-0.129-0.268-0.268-0.371-0.565-0.366c-1.082,0.017-2.166,0.021-3.249-0.001
		c-0.339-0.006-0.415,0.095-0.415,0.424c0.014,2.809,0.01,5.617,0.008,8.425c-0.001,1.203-0.01,2.406-0.016,3.609
		c-0.927,0.001-1.854,0.001-2.781,0.001c-0.024-1.391-0.082-2.779-0.183-4.166c-0.1-1.388-0.246-2.767-0.642-4.109
		c-0.709-2.406-2.234-3.966-4.71-4.526c-1.329-0.3-2.674-0.344-4.026-0.19c-2.596,0.297-4.504,1.551-5.56,3.992
		c-0.678,1.569-0.889,3.233-1.043,4.914c-0.124,1.358-0.151,2.721-0.222,4.083c-1.6,0.003-3.201,0.006-4.801,0.009
		c-0.105,0-0.215,0.007-0.305-0.065c0.056-0.136,0.108-0.272,0.169-0.405c1.763-3.86,3.527-7.72,5.29-11.58
		c0.184-0.403,0.183-0.405-0.25-0.405c-1.364-0.001-2.729,0.013-4.092-0.011c-0.328-0.005-0.463,0.116-0.587,0.391
		c-1.183,2.629-2.375,5.253-3.571,7.875c-0.063,0.137-0.078,0.314-0.258,0.399c-0.058-0.126-0.115-0.244-0.166-0.364
		c-1.108-2.603-2.226-5.201-3.313-7.813c-0.161-0.386-0.357-0.498-0.76-0.489c-1.311,0.028-2.622,0.009-3.932,0.012
		c-0.143,0-0.291-0.038-0.448,0.048c0.049,0.123,0.095,0.246,0.146,0.367c1.036,2.401,2.075,4.801,3.108,7.204
		c0.689,1.605,1.37,3.214,2.055,4.822c-0.16,0.005-0.32,0.014-0.48,0.015c-5.79,0-11.579,0-17.369,0c-0.16,0-0.32-0.009-0.481-0.013
		c0.059-0.119,0.111-0.241,0.178-0.355c2.236-3.876,4.476-7.751,6.709-11.629c0.075-0.131,0.211-0.248,0.179-0.415
		c-6.95,0-13.891,0-20.9,0c0.132,0.085,0.198,0.129,0.266,0.17c3.181,1.948,5.693,4.544,7.513,7.8
		c0.784,1.401,1.431,2.864,1.822,4.429c-1.274,0.009-2.549,0.019-3.824,0.026c-0.066-0.042-0.136-0.08-0.201-0.125
		c-1.486-1.044-3.127-1.496-4.943-1.34c-1.409,0.121-2.648,0.656-3.789,1.461c-1.369-0.006-2.737-0.013-4.106-0.019
		c0.054-0.106,0.103-0.216,0.162-0.318c1.957-3.391,3.913-6.779,5.87-10.168c0.366-0.633,0.729-1.267,1.105-1.918
		c-6.997,0-13.947,0-20.982,0c1.814,1.073,3.381,2.314,4.757,3.79c2.299,2.466,3.945,5.306,4.866,8.557
		c-0.143,0.103-0.307,0.066-0.464,0.067c-1.115,0.005-2.231,0.006-3.346,0.008l-0.003-0.002c-0.029-0.021-0.059-0.045-0.087-0.066
		c-0.09-0.056-0.184-0.106-0.271-0.165c-1.695-1.134-3.549-1.487-5.543-1.121c-1.123,0.205-2.117,0.71-3.042,1.362
		c-0.187-0.004-0.373-0.014-0.56-0.014C25.406,50.024,22.203,50.022,19,50.019z"/>
	<path fill-rule="evenodd" clip-rule="evenodd" fill="#1D9533" d="M67.245,50.016c0.161,0.004,0.321,0.013,0.481,0.013
		c5.79,0,11.579,0,17.369,0c0.16-0.001,0.32-0.01,0.48-0.015c0.266,0.596,0.52,1.198,0.8,1.786c0.16,0.336,0.22,0.673,0.22,1.043
		c-0.009,3.104,0,6.208-0.013,9.312c-0.001,0.314,0.078,0.404,0.397,0.4c1.23-0.02,2.462-0.027,3.692,0.002
		c0.391,0.009,0.45-0.126,0.449-0.474c-0.012-3.144-0.006-6.288-0.005-9.433c0-0.173-0.021-0.346,0.057-0.513
		c0.341-0.724,0.676-1.45,1.014-2.176c0.09,0.072,0.2,0.065,0.305,0.065c1.6-0.003,3.201-0.006,4.801-0.009
		c0.049,1.068,0.081,2.137,0.153,3.204c0.115,1.694,0.256,3.386,0.796,5.014c0.776,2.339,2.231,3.995,4.689,4.609
		c1.646,0.411,3.306,0.402,4.97,0.061c2.25-0.464,3.774-1.777,4.617-3.901c0.527-1.329,0.749-2.727,0.896-4.139
		c0.169-1.609,0.231-3.227,0.264-4.845c0.928,0,1.854,0,2.781-0.001c0.006,0.16,0.016,0.32,0.016,0.48
		c0.001,3.892,0.003,7.783-0.007,11.676c-0.001,0.293,0.065,0.388,0.374,0.382c1.242-0.019,2.487-0.022,3.73,0.002
		c0.368,0.007,0.462-0.092,0.462-0.461c-0.014-4.173-0.009-8.346-0.008-12.518c0-0.13-0.039-0.274,0.065-0.423
		c0.076,0.154,0.137,0.272,0.195,0.392c2.03,4.221,4.063,8.439,6.085,12.664c0.123,0.256,0.256,0.349,0.539,0.343
		c1.097-0.017,2.192-0.021,3.289,0.002c0.33,0.007,0.394-0.104,0.393-0.407c-0.011-2.755-0.008-5.51-0.006-8.265
		c0.001-1.284,0.009-2.567,0.015-3.851c1.078-0.005,2.154-0.012,3.232-0.016c0.005,0.16,0.015,0.32,0.015,0.48
		c0.001,3.891,0.002,7.783-0.005,11.675c0,0.249,0.021,0.378,0.334,0.378c4.172-0.012,8.345-0.011,12.517-0.002
		c0.286,0.001,0.357-0.088,0.355-0.363c-0.015-1.243-0.02-2.487,0.002-3.73c0.007-0.351-0.08-0.447-0.439-0.444
		c-2.594,0.017-5.188,0.002-7.782,0.017c-0.339,0.001-0.457-0.064-0.452-0.434c0.021-1.646,0.021-3.291,0-4.935
		c-0.005-0.371,0.116-0.436,0.455-0.434c2.354,0.014,4.708,0.001,7.062,0.014c0.301,0.002,0.389-0.079,0.381-0.381
		c-0.018-0.613,0.006-1.229,0.014-1.844c2.68,0.001,5.36,0.002,8.04,0.004c-0.047,0.123-0.085,0.25-0.142,0.368
		c-1.888,3.922-3.773,7.845-5.67,11.762c-0.146,0.301-0.146,0.393,0.23,0.388c1.391-0.019,2.783-0.021,4.175,0.002
		c0.325,0.006,0.465-0.116,0.595-0.388c1.038-2.167,2.092-4.327,3.141-6.489c0.062-0.128,0.132-0.251,0.2-0.383
		c0.164,0.093,0.188,0.25,0.248,0.376c1.055,2.188,2.108,4.378,3.15,6.573c0.108,0.226,0.23,0.309,0.481,0.307
		c1.419-0.012,2.838-0.005,4.255-0.006c0.443,0,0.444-0.001,0.245-0.414c-1.876-3.897-3.753-7.795-5.628-11.692
		c-0.062-0.13-0.158-0.25-0.157-0.405c5.516-0.001,11.032-0.002,16.549-0.003c0.004,0.134,0.013,0.268,0.013,0.401
		c0,6.742-0.002,13.485,0.008,20.229c0.001,0.339-0.062,0.442-0.429,0.442c-52.395-0.01-104.791-0.009-157.185-0.006
		c-0.259,0-0.432,0.021-0.431-0.356c0.013-6.823,0.01-13.647,0.01-20.471c0-0.08,0.009-0.16,0.013-0.24
		c3.203,0.004,6.406,0.006,9.607,0.011c0.188,0,0.374,0.01,0.56,0.014c-0.108,0.1-0.216,0.199-0.324,0.299
		c-1.96,1.797-2.773,4.021-2.386,6.646c0.602,4.068,4.565,6.844,8.571,6.034c4.143-0.836,6.725-4.931,5.683-8.99
		c-0.418-1.628-1.324-2.93-2.597-3.997c1.115-0.002,2.231-0.003,3.346-0.008c0.157-0.001,0.321,0.035,0.464-0.068
		c0.573,1.869,0.807,3.792,0.852,5.836c0.126-0.206,0.204-0.325,0.274-0.446c1.032-1.776,2.064-3.553,3.096-5.33
		c1.369,0.006,2.737,0.013,4.106,0.019c-0.077,0.073-0.152,0.147-0.232,0.219c-2.079,1.856-2.938,4.165-2.449,6.911
		c0.742,4.158,4.866,6.81,8.896,5.77c4.172-1.076,6.53-5.393,5.161-9.444c-0.471-1.394-1.326-2.516-2.444-3.451
		c1.275-0.008,2.55-0.018,3.824-0.025c0.474,1.455,0.695,2.955,0.795,4.478c0.027,0.397,0.049,0.795,0.079,1.288
		c0.192-0.329,0.326-0.559,0.46-0.789C65.312,53.333,66.278,51.675,67.245,50.016z M167.365,60.107
		c0.004,1.42,1.173,2.585,2.581,2.573c1.412-0.012,2.565-1.188,2.556-2.605c-0.01-1.391-1.178-2.553-2.567-2.556
		C168.526,57.517,167.361,58.689,167.365,60.107z"/>
	<path fill-rule="evenodd" clip-rule="evenodd" fill="#FCFEFD" d="M131.602,50.038c-0.006,1.283-0.014,2.566-0.015,3.851
		c-0.002,2.755-0.005,5.51,0.006,8.265c0.001,0.303-0.062,0.414-0.393,0.407c-1.097-0.022-2.192-0.019-3.289-0.002
		c-0.283,0.006-0.416-0.087-0.539-0.343c-2.021-4.225-4.055-8.443-6.085-12.664c-0.059-0.119-0.119-0.237-0.195-0.392
		c-0.104,0.148-0.065,0.293-0.065,0.423c-0.001,4.172-0.006,8.345,0.008,12.518c0,0.369-0.094,0.468-0.462,0.461
		c-1.243-0.024-2.488-0.021-3.73-0.002c-0.309,0.006-0.375-0.089-0.374-0.382c0.01-3.893,0.008-7.784,0.007-11.676
		c0-0.16-0.01-0.32-0.016-0.48c0.006-1.203,0.015-2.407,0.016-3.609c0.002-2.808,0.006-5.616-0.008-8.425
		c0-0.329,0.076-0.43,0.415-0.424c1.083,0.022,2.167,0.019,3.249,0.001c0.298-0.005,0.437,0.098,0.565,0.366
		c2.029,4.235,4.072,8.466,6.112,12.696c0.061,0.128,0.128,0.253,0.253,0.37c0-0.139,0-0.277,0-0.417
		c0-4.199,0.004-8.398-0.008-12.596c-0.001-0.329,0.07-0.427,0.411-0.42c1.243,0.022,2.487,0.02,3.731,0.001
		c0.317-0.005,0.397,0.085,0.396,0.399c-0.011,3.918-0.008,7.836-0.007,11.754C131.586,49.825,131.596,49.931,131.602,50.038z"/>
	<path fill-rule="evenodd" clip-rule="evenodd" fill="#FCFDFD" d="M113.678,50.022c-0.032,1.618-0.095,3.235-0.264,4.845
		c-0.147,1.412-0.369,2.81-0.896,4.139c-0.843,2.124-2.367,3.438-4.617,3.901c-1.664,0.342-3.324,0.351-4.97-0.061
		c-2.458-0.614-3.913-2.271-4.689-4.609c-0.54-1.628-0.681-3.319-0.796-5.014c-0.072-1.067-0.104-2.136-0.153-3.204
		c0.071-1.361,0.098-2.724,0.222-4.083c0.154-1.681,0.365-3.344,1.043-4.914c1.056-2.441,2.964-3.695,5.56-3.992
		c1.353-0.154,2.697-0.109,4.026,0.19c2.476,0.56,4.001,2.12,4.71,4.526c0.396,1.342,0.542,2.721,0.642,4.109
		C113.596,47.243,113.653,48.632,113.678,50.022z M108.931,50.021c0.056-1.352-0.079-2.696-0.13-4.043
		c-0.034-0.91-0.069-1.816-0.394-2.682c-0.514-1.38-1.59-2.06-3.129-1.983c-1.503,0.075-2.39,0.794-2.796,2.242
		c-0.246,0.875-0.222,1.771-0.264,2.663c-0.061,1.268-0.172,2.534-0.118,3.805c-0.05,1.755,0.089,3.502,0.192,5.251
		c0.027,0.479,0.133,0.951,0.278,1.413c0.441,1.401,1.358,2.093,2.812,2.107c1.604,0.017,2.585-0.65,3.055-2.073
		c0.277-0.836,0.323-1.702,0.36-2.572C108.859,52.772,108.988,51.399,108.931,50.021z"/>
	<path fill-rule="evenodd" clip-rule="evenodd" fill="#FCFDFD" d="M147.289,50.02c-0.008,0.614-0.031,1.23-0.014,1.844
		c0.008,0.302-0.08,0.383-0.381,0.381c-2.354-0.013-4.708,0-7.062-0.014c-0.339-0.002-0.46,0.062-0.455,0.434
		c0.021,1.644,0.021,3.289,0,4.935c-0.005,0.369,0.113,0.435,0.452,0.434c2.594-0.015,5.188,0,7.782-0.017
		c0.359-0.003,0.446,0.094,0.439,0.444c-0.021,1.243-0.017,2.487-0.002,3.73c0.002,0.275-0.069,0.364-0.355,0.363
		c-4.172-0.009-8.345-0.01-12.517,0.002c-0.312,0-0.334-0.129-0.334-0.378c0.007-3.892,0.006-7.784,0.005-11.675
		c0-0.16-0.01-0.32-0.015-0.48c0.005-1.752,0.013-3.503,0.015-5.255c0.002-2.272,0.006-4.546-0.008-6.82
		c-0.001-0.298,0.07-0.377,0.373-0.376c4.146,0.011,8.291,0.011,12.438,0c0.319-0.001,0.398,0.087,0.394,0.399
		c-0.019,1.23-0.021,2.46,0.001,3.69c0.006,0.339-0.061,0.447-0.429,0.444c-2.594-0.02-5.188-0.001-7.783-0.02
		c-0.357-0.001-0.439,0.089-0.435,0.439c0.02,1.591,0.022,3.183-0.002,4.774c-0.005,0.37,0.109,0.43,0.445,0.428
		c2.328-0.015,4.653,0.001,6.981-0.019c0.384-0.003,0.464,0.116,0.452,0.469C147.254,48.79,147.282,49.405,147.289,50.02z"/>
	<path fill-rule="evenodd" clip-rule="evenodd" fill="#FCFDFD" d="M160.453,50.021c-0.001,0.155,0.095,0.275,0.157,0.405
		c1.875,3.897,3.752,7.795,5.628,11.692c0.199,0.413,0.198,0.414-0.245,0.414c-1.417,0.001-2.836-0.006-4.255,0.006
		c-0.251,0.002-0.373-0.081-0.481-0.307c-1.042-2.195-2.096-4.385-3.15-6.573c-0.061-0.126-0.084-0.283-0.248-0.376
		c-0.068,0.132-0.139,0.255-0.2,0.383c-1.049,2.162-2.103,4.322-3.141,6.489c-0.13,0.271-0.27,0.394-0.595,0.388
		c-1.392-0.022-2.784-0.021-4.175-0.002c-0.377,0.005-0.376-0.087-0.23-0.388c1.896-3.917,3.782-7.84,5.67-11.762
		c0.057-0.118,0.095-0.245,0.142-0.368c0.024-0.147-0.072-0.254-0.129-0.37c-1.863-3.886-3.729-7.771-5.594-11.656
		c-0.204-0.424-0.204-0.425,0.283-0.425c1.363-0.001,2.728,0.013,4.091-0.01c0.338-0.006,0.488,0.117,0.624,0.403
		c1.01,2.121,2.036,4.233,3.057,6.348c0.062,0.127,0.131,0.251,0.202,0.387c0.167-0.108,0.196-0.275,0.262-0.413
		c1.023-2.129,2.045-4.257,3.054-6.394c0.114-0.242,0.244-0.326,0.513-0.323c1.431,0.014,2.861,0.018,4.292,0
		c0.387-0.005,0.374,0.1,0.23,0.396c-1.876,3.879-3.742,7.764-5.609,11.648C160.543,49.745,160.441,49.863,160.453,50.021z"/>
	<path fill-rule="evenodd" clip-rule="evenodd" fill="#FCFDFE" d="M92.186,49.963c-0.338,0.726-0.673,1.452-1.014,2.176
		c-0.078,0.167-0.057,0.34-0.057,0.513c-0.001,3.145-0.006,6.289,0.005,9.433c0.001,0.348-0.058,0.482-0.449,0.474
		c-1.23-0.029-2.462-0.021-3.692-0.002c-0.319,0.004-0.399-0.086-0.397-0.4c0.013-3.104,0.004-6.208,0.013-9.312
		c0-0.37-0.06-0.707-0.22-1.043c-0.28-0.588-0.534-1.19-0.8-1.786c-0.685-1.607-1.366-3.216-2.055-4.822
		c-1.033-2.403-2.072-4.803-3.108-7.204c-0.051-0.121-0.097-0.244-0.146-0.367c0.157-0.085,0.305-0.048,0.448-0.048
		c1.31-0.003,2.622,0.016,3.932-0.012c0.403-0.009,0.599,0.104,0.76,0.489c1.087,2.612,2.205,5.21,3.313,7.813
		c0.051,0.12,0.108,0.238,0.166,0.364c0.18-0.085,0.195-0.262,0.258-0.399c1.195-2.622,2.388-5.246,3.571-7.875
		c0.124-0.275,0.259-0.396,0.587-0.391c1.364,0.024,2.729,0.01,4.092,0.011c0.434,0,0.435,0.002,0.25,0.405
		c-1.763,3.86-3.527,7.72-5.29,11.58C92.294,49.69,92.242,49.827,92.186,49.963z"/>
	<path fill-rule="evenodd" clip-rule="evenodd" fill="#FCFEFE" d="M38.115,50.035c1.272,1.067,2.178,2.369,2.597,3.997
		c1.042,4.06-1.54,8.154-5.683,8.99c-4.005,0.81-7.969-1.966-8.571-6.034c-0.388-2.626,0.425-4.85,2.386-6.646
		c0.108-0.1,0.216-0.199,0.324-0.299c0.925-0.652,1.919-1.157,3.042-1.362c1.995-0.366,3.849-0.013,5.543,1.121
		c0.087,0.059,0.181,0.109,0.271,0.165c0.028,0.021,0.058,0.044,0.087,0.066L38.115,50.035z"/>
	<path fill-rule="evenodd" clip-rule="evenodd" fill="#FCFEFE" d="M59.187,50.041c1.118,0.936,1.974,2.058,2.444,3.451
		c1.369,4.052-0.989,8.368-5.161,9.444c-4.031,1.04-8.155-1.611-8.896-5.77c-0.49-2.746,0.37-5.055,2.449-6.911
		c0.08-0.071,0.155-0.146,0.232-0.219c1.141-0.805,2.38-1.34,3.789-1.461c1.815-0.156,3.457,0.295,4.943,1.34
		C59.05,49.961,59.12,49.999,59.187,50.041z"/>
	<path fill-rule="evenodd" clip-rule="evenodd" fill="#FCFEFE" d="M67.245,50.016c-0.966,1.659-1.933,3.317-2.899,4.977
		c-0.134,0.23-0.268,0.46-0.46,0.789c-0.03-0.493-0.052-0.891-0.079-1.288c-0.101-1.522-0.321-3.022-0.795-4.478
		c-0.391-1.566-1.038-3.028-1.822-4.43c-1.82-3.256-4.332-5.852-7.513-7.8c-0.067-0.042-0.134-0.085-0.266-0.17
		c7.01,0,13.951,0,20.9,0c0.032,0.167-0.104,0.284-0.179,0.415c-2.233,3.878-4.473,7.753-6.709,11.629
		C67.356,49.774,67.304,49.896,67.245,50.016z"/>
	<path fill-rule="evenodd" clip-rule="evenodd" fill="#FCFEFE" d="M46.147,50.019c-1.032,1.777-2.064,3.554-3.096,5.33
		c-0.071,0.121-0.148,0.24-0.274,0.446c-0.045-2.044-0.279-3.967-0.852-5.836c-0.92-3.25-2.566-6.089-4.866-8.556
		c-1.376-1.475-2.943-2.717-4.757-3.79c7.035,0,13.985,0,20.982,0c-0.376,0.651-0.74,1.285-1.105,1.918
		c-1.957,3.389-3.913,6.778-5.87,10.168C46.25,49.803,46.201,49.912,46.147,50.019z"/>
	<path fill-rule="evenodd" clip-rule="evenodd" fill="#14716E" d="M38.112,50.033c-0.029-0.022-0.059-0.045-0.087-0.066
		C38.053,49.988,38.083,50.012,38.112,50.033z"/>
	<path fill-rule="evenodd" clip-rule="evenodd" fill="#ECF6EE" d="M167.365,60.107c-0.004-1.418,1.161-2.591,2.569-2.588
		c1.39,0.003,2.558,1.165,2.567,2.556c0.01,1.418-1.144,2.594-2.556,2.605C168.538,62.692,167.369,61.527,167.365,60.107z
		 M169.918,62.417c1.274,0.003,2.325-1.043,2.328-2.314c0.003-1.262-1.074-2.34-2.327-2.328c-1.254,0.012-2.297,1.056-2.303,2.307
		C167.607,61.357,168.648,62.413,169.918,62.417z"/>
	<path fill-rule="evenodd" clip-rule="evenodd" fill="#1E9534" d="M108.931,50.021c0.058,1.379-0.071,2.752-0.132,4.127
		c-0.037,0.87-0.083,1.736-0.36,2.572c-0.47,1.423-1.451,2.09-3.055,2.073c-1.454-0.015-2.371-0.706-2.812-2.107
		c-0.146-0.462-0.251-0.934-0.278-1.413c-0.104-1.749-0.242-3.496-0.192-5.251C104.377,50.021,106.654,50.021,108.931,50.021z"/>
	<path fill-rule="evenodd" clip-rule="evenodd" fill="#0C51A0" d="M108.931,50.021c-2.276,0.001-4.554,0.001-6.83,0.001
		c-0.054-1.271,0.058-2.537,0.118-3.805c0.042-0.892,0.018-1.789,0.264-2.663c0.406-1.448,1.293-2.167,2.796-2.242
		c1.539-0.077,2.615,0.604,3.129,1.983c0.324,0.865,0.359,1.771,0.394,2.682C108.852,47.325,108.986,48.669,108.931,50.021z"/>
	<path fill-rule="evenodd" clip-rule="evenodd" fill="#219637" d="M169.918,62.417c-1.27-0.004-2.311-1.06-2.302-2.336
		c0.006-1.251,1.049-2.295,2.303-2.307c1.253-0.012,2.33,1.066,2.327,2.328C172.243,61.374,171.192,62.42,169.918,62.417z
		 M171.087,61.419c-0.024-0.062-0.046-0.122-0.066-0.182c-0.126-0.363,0.09-0.821-0.312-1.114c-0.044-0.03,0.05-0.101,0.097-0.144
		c0.27-0.247,0.231-0.557,0.135-0.853c-0.1-0.312-0.374-0.4-0.669-0.41c-0.374-0.011-0.748,0-1.121-0.009
		c-0.167-0.003-0.24,0.047-0.238,0.226c0.007,0.774,0.006,1.549,0.002,2.323c-0.001,0.155,0.063,0.212,0.216,0.208
		c0.158-0.003,0.162-0.101,0.161-0.215c-0.001-0.24,0.01-0.481-0.004-0.721c-0.01-0.194,0.066-0.243,0.254-0.252
		c0.933-0.049,0.96-0.038,1.059,0.844C170.634,61.434,170.768,61.547,171.087,61.419z"/>
	<path fill-rule="evenodd" clip-rule="evenodd" fill="#ECF6EE" d="M171.087,61.419c-0.319,0.128-0.453,0.015-0.488-0.298
		c-0.099-0.882-0.126-0.893-1.059-0.844c-0.188,0.009-0.264,0.058-0.254,0.252c0.014,0.239,0.003,0.48,0.004,0.721
		c0.001,0.114-0.003,0.212-0.161,0.215c-0.152,0.004-0.217-0.053-0.216-0.208c0.004-0.774,0.005-1.549-0.002-2.323
		c-0.002-0.179,0.071-0.229,0.238-0.226c0.373,0.009,0.747-0.002,1.121,0.009c0.295,0.01,0.569,0.099,0.669,0.41
		c0.097,0.296,0.135,0.605-0.135,0.853c-0.047,0.043-0.141,0.113-0.097,0.144c0.402,0.293,0.187,0.751,0.312,1.114
		C171.041,61.297,171.062,61.356,171.087,61.419z M169.806,59.034c-0.126,0.091-0.404-0.15-0.507,0.119
		c-0.201,0.53,0.019,0.823,0.577,0.821c0.58-0.001,0.757-0.108,0.77-0.463C170.656,59.152,170.464,59.035,169.806,59.034z"/>
	<path fill-rule="evenodd" clip-rule="evenodd" fill="#219637" d="M169.806,59.034c0.658,0.001,0.851,0.118,0.84,0.478
		c-0.013,0.354-0.189,0.462-0.77,0.463c-0.559,0.002-0.778-0.291-0.577-0.821C169.401,58.884,169.68,59.125,169.806,59.034z"/>
</g>
</svg>
